<svg width="42" height="44" viewBox="0 0 42 44" fill="none" xmlns="http://www.w3.org/2000/svg">
<path d="M10 15.3333H31.3333M18 20.6667V28.6667M23.3333 20.6667V28.6667M11.3333 15.3333L12.6667 31.3333C12.6667 32.0406 12.9476 32.7189 13.4477 33.219C13.9478 33.719 14.6261 34 15.3333 34H26C26.7072 34 27.3855 33.719 27.8856 33.219C28.3857 32.7189 28.6667 32.0406 28.6667 31.3333L30 15.3333M16.6667 15.3333V11.3333C16.6667 10.9797 16.8071 10.6406 17.0572 10.3905C17.3072 10.1405 17.6464 10 18 10H23.3333C23.687 10 24.0261 10.1405 24.2761 10.3905C24.5262 10.6406 24.6667 10.9797 24.6667 11.3333V15.3333" stroke="white" stroke-width="2" stroke-linecap="round" stroke-linejoin="round"/>
</svg>