<svg width="26" height="26" viewBox="0 0 26 26" fill="none" xmlns="http://www.w3.org/2000/svg">
<path d="M5.23527 6.64706H3.82351C3.07467 6.64706 2.3565 6.94454 1.82699 7.47405C1.29748 8.00357 1 8.72174 1 9.47059V22.1765C1 22.9253 1.29748 23.6435 1.82699 24.173C2.3565 24.7025 3.07467 25 3.82351 25H16.5293C17.2782 25 17.9963 24.7025 18.5258 24.173C19.0553 23.6435 19.3528 22.9253 19.3528 22.1765V20.7647M17.9411 3.82353L22.1763 8.05882M24.1316 6.06133C24.6876 5.50531 25 4.75119 25 3.96486C25 3.17853 24.6876 2.42441 24.1316 1.86839C23.5756 1.31237 22.8215 1 22.0352 1C21.2488 1 20.4947 1.31237 19.9387 1.86839L8.05878 13.706V17.9413H12.294L24.1316 6.06133Z" stroke="white" stroke-width="2" stroke-linecap="round" stroke-linejoin="round"/>
</svg>